# xmcd
#
# Track frame offsets: 
#        150
#        15260
#        28072
#        42633
#        60642
#        77068
#        94627
#        109061
#        130295
#        146206
#        161171
#        175078
#        191365
#        208164
#        223372
#        237414
#        250870
#        280582
#        294586
#        301532
#        314534
#        328472
#
# Disc length: 4559 seconds
#
# Revision: 0
# Processed by: cddbd v1.5.2PL0 Copyright (c) Steve Scherf et al.
# Submitted via: ExactAudioCopyFreeDBPlugin 1.0
#
DISCID=4a11cd16
DTITLE=!llflow - Implosion
DYEAR=2012
DGENRE=Hip-Hop
TTITLE0=Boombap feat. Nico Suave
TTITLE1=Hilft mir nicht
TTITLE2=Implosion
TTITLE3=Mit der Zeit feat. Marc Reis
TTITLE4=Adrenalin feat. Timi Hendrix and Rockstah
TTITLE5=Fokus
TTITLE6=Lass es raus
TTITLE7=Teardrop feat. Weekend and DonJohn
TTITLE8=Smog
TTITLE9=Trauma
TTITLE10=Reise ins Jenseits
TTITLE11=Indie
TTITLE12=Seimanichso feat. Headtrick
TTITLE13=Bruder Jakob feat. M. Riebhold
TTITLE14=Leben ist
TTITLE15=Will dich hassen
TTITLE16=Nebel
TTITLE17=BadaBoom BadaBang (Bonus)
TTITLE18=48 Bars (Live @ Backstage München) (Bonus)
TTITLE19=Bis zum letzten Ton feat. Viper (Bonus)
TTITLE20=Druck (Bonus)
TTITLE21=Malen feat. Karin Rabhansl and Beatbox Joker (Bonus)
EXTD=
EXTT0=
EXTT1=
EXTT2=
EXTT3=
EXTT4=
EXTT5=
EXTT6=
EXTT7=
EXTT8=
EXTT9=
EXTT10=
EXTT11=
EXTT12=
EXTT13=
EXTT14=
EXTT15=
EXTT16=
EXTT17=
EXTT18=
EXTT19=
EXTT20=
EXTT21=
PLAYORDER=
